<?xml version="1.0" encoding="utf-8"?>
<!-- Generator: Adobe Illustrator 23.0.2, SVG Export Plug-In . SVG Version: 6.00 Build 0)  -->
<svg version="1.1" id="sk__chat" xmlns="http://www.w3.org/2000/svg" xmlns:xlink="http://www.w3.org/1999/xlink" x="0px" y="0px"
	 viewBox="0 0 232.2 275.66" style="enable-background:new 0 0 232.2 275.66;" xml:space="preserve">
<style type="text/css">
	.st0 { opacity:0.53;fill:#FFFFFF; }
	#sh_chat {background-color: green;};

</style>
<g>
	<g>
		<path class="st0" d="M101.63,159.31c-3.78,4.57-7.17,8.66-10.89,13.16C100.43,170.47,101.99,167.4,101.63,159.31z"/>
		<path class="st0" d="M84.42,191.54c-1.89-0.17-3.81-0.06-5.72-0.06c0-0.03,0-0.06,0-0.08c-2.01,0-4.03-0.13-6.02,0.07
			c-0.75,0.07-1.79,0.76-2.04,1.41c-0.25,0.65,0.08,1.84,0.59,2.41c1.39,1.56,2.99,2.95,4.54,4.36c1.81,1.65,3.71,1.68,5.55,0.08
			c1.58-1.38,3.19-2.75,4.57-4.32c0.55-0.63,0.86-1.87,0.64-2.66C86.37,192.18,85.19,191.61,84.42,191.54z"/>
		<path class="st0" d="M99.62,122.07c0.31-0.66,0.51-1.38,0.88-2.39c-7.38-1.68-14.49-3.41-21.67-4.83
			c-1.46-0.29-3.16,0.55-4.73,0.92c-5.65,1.33-11.3,2.67-17.35,4.11c1.32,2.95,2.54,5.8,3.87,8.6c3.71,7.85,7.49,15.67,11.15,23.54
			c0.5,1.08,0.73,2.39,0.7,3.58c-0.27,9.31-0.66,18.62-0.97,27.93c-0.07,2.18-0.01,4.37-0.01,6.74c4.73,0,9.29,0,14.01,0
			c0-4.45,0.09-8.82-0.02-13.18c-0.19-7.39-0.57-14.78-0.72-22.17c-0.03-1.26,0.57-2.59,1.13-3.78
			C90.42,141.43,95.04,131.75,99.62,122.07z"/>
		<path class="st0" d="M66.42,172.42c-3.63-4.39-6.93-8.39-10.38-12.57C54.92,166.23,56.38,170.58,66.42,172.42z"/>
		<path class="st0" d="M40,133.71c0.74,2.41,0.63,5.08,0.93,7.92c3.51-4.06,3.18-8.52,2.36-13.02c-0.4-2.2-0.43-4.17,1.67-5.58
			c0.96,0.61,1.91,1.22,2.86,1.82c0.21-0.25,0.43-0.5,0.64-0.75c-1.21-1.01-2.41-2.02-3.66-3.07
			C41.09,124.66,38.31,128.22,40,133.71z"/>
		<path class="st0" d="M109.29,124.96c0.97-0.58,1.95-1.16,3.5-2.09c0.47,1.52,1.05,2.75,1.19,4.03c0.13,1.21-0.15,2.48-0.37,3.7
			c-0.71,3.93-0.12,7.56,2.62,11.18c0.61-4.6,1.4-8.85,1.61-13.14c0.07-1.34-1.38-2.8-2.26-4.12c-0.79-1.18-1.76-2.24-2.75-3.48
			c-0.98,0.45-1.87,0.85-2.77,1.26c-0.43,0.7-0.87,1.4-1.3,2.1C108.94,124.58,109.12,124.77,109.29,124.96z"/>
		<path class="st0" d="M194.89,76.67c-0.39,0.69-0.79,1.38-1.47,2.57c-1.15-4.8-2.23-9.08-3.19-13.39
			c-5.89-26.34-30.71-42.39-54.23-42.2c-4.69,0.04-9.38,0.01-14.17,0.01c1.82-1.14,3.87-2.43,6.39-4.01
			c-5.69-0.13-10.57,1.19-15.27,3.31c-17.45,7.89-26.7,22.09-30.62,40.24c-1.86,8.6-2.55,17.28-0.09,25.93
			c0.07,0.26-0.04,0.57-0.11,1.31c-4.71-4.34-7.8-9.35-8.38-15.34c-0.56-5.75-0.12-11.61-0.38-17.4
			C62.23,76.75,66.6,94.8,77.62,112.7c-4.93,1.1-9.42,2.27-13.97,3.09c-5.07,0.91-9.99,1.94-13.33,6.61
			c-2.45-1.56-4.67-2.97-7.11-4.53c-1.46,2.36-2.84,4.59-4.22,6.82c0.2,0.15,0.4,0.29,0.61,0.44c1.22-1.86,2.45-3.73,3.89-5.92
			c2.15,1.42,4.26,2.81,6.54,4.3c7.74-7.5,18.48-6.61,27.85-9.67c1.29-0.42,3.01,0.25,4.48,0.61c5.48,1.33,10.96,2.65,16.38,4.19
			c1.85,0.52,3.79,1.35,5.23,2.59c1.99,1.71,3.78,2.63,6.16,1c0,0-0.1,0.11-0.11,0.11c0.02-0.01,0.04-0.02,0.06-0.03
			c0.01-0.02,0.02-0.04,0.04-0.06c1.07-0.98,2.14-1.96,3.56-3.26c2.14,3.55,4.76,6.58,5.82,10.09c0.75,2.48-0.31,5.68-1.06,8.43
			c-2.17,7.96-1.53,15.95-0.82,23.98c0.1,1.15-0.36,2.64-1.1,3.53c-2.86,3.49-6.13,6.65-8.86,10.23c-2.18,2.85-4.04,6-5.62,9.23
			c-2.3,4.71-4.2,9.62-6.32,14.43c-0.44,1-1.08,1.92-1.14,3.25c1.05-1.51,2.09-3.02,3.4-4.91c16.33,2.42,30.84-1.84,41.99-15.04
			c8.03-9.51,11.6-20.52,10.1-33.77c-1.5,3.43-2.74,6.24-3.97,9.06c-0.44-0.01-0.89-0.03-1.33-0.04
			c5.51-21.73-2.52-40.21-13.48-58.37c0.11,1.23,0.19,2.16,0.29,3.08c0.1,0.99,0.23,1.97,0.07,3.04c-3.66-3.51-5.57-7.88-6.81-12.63
			c-4.12-15.68,3.1-32.84,17.02-40.43c6.8-3.71,13.88-3.95,21.15-1.7c1.53,0.47,3.05,0.95,5.31,1.65c-1.39-2.83-2.5-5.08-3.61-7.34
			c4.3,0.56,15.18,12.39,19.63,21.51c4.39,8.99,6.86,18.54,7.58,28.56c0.36,0.02,0.73,0.04,1.09,0.06
			c0.95-5.99,1.9-11.98,2.85-17.97C195.53,76.82,195.21,76.75,194.89,76.67z"/>
	</g>
	<path d="M173.43,0H58.76C26.44,0,0,26.44,0,58.76v114.67c0,21.07,11.24,39.64,28.02,50.01c2.22,17.4,4.45,34.81,6.67,52.21
		c30.14-14.49,60.28-28.97,90.43-43.46h48.31c32.32,0,58.76-26.44,58.76-58.76V58.76C232.2,26.44,205.75,0,173.43,0z M43.29,128.61
		c0.82,4.5,1.15,8.96-2.36,13.02c-0.31-2.85-0.19-5.52-0.93-7.92c-1.69-5.49,1.09-9.05,4.79-12.68c1.25,1.05,2.46,2.06,3.66,3.07
		c-0.21,0.25-0.43,0.5-0.64,0.75c-0.95-0.6-1.89-1.21-2.86-1.82C42.86,124.44,42.89,126.41,43.29,128.61z M99.62,122.07
		c-4.58,9.69-9.2,19.36-13.75,29.06c-0.56,1.19-1.16,2.52-1.13,3.78c0.15,7.39,0.53,14.78,0.72,22.17
		c0.11,4.37,0.02,8.74,0.02,13.18c-4.71,0-9.28,0-14.01,0c0-2.37-0.06-4.56,0.01-6.74c0.31-9.31,0.7-18.62,0.97-27.93
		c0.03-1.19-0.19-2.51-0.7-3.58c-3.66-7.87-7.44-15.69-11.15-23.54c-1.32-2.8-2.54-5.65-3.87-8.6c6.05-1.43,11.7-2.78,17.35-4.11
		c1.58-0.37,3.27-1.21,4.73-0.92c7.18,1.42,14.29,3.15,21.67,4.83C100.13,120.68,99.93,121.4,99.62,122.07z M101.63,159.31
		c0.36,8.08-1.19,11.15-10.89,13.16C94.46,167.98,97.85,163.88,101.63,159.31z M84.42,191.54c0.77,0.07,1.95,0.64,2.12,1.21
		c0.22,0.78-0.09,2.03-0.64,2.66c-1.38,1.57-2.99,2.94-4.57,4.32c-1.84,1.61-3.74,1.57-5.55-0.08c-1.55-1.41-3.15-2.8-4.54-4.36
		c-0.51-0.57-0.84-1.76-0.59-2.41c0.25-0.66,1.29-1.34,2.04-1.41c1.99-0.19,4.01-0.07,6.02-0.07c0,0.03,0,0.06,0,0.08
		C80.6,191.48,82.52,191.37,84.42,191.54z M66.42,172.42c-10.04-1.84-11.51-6.19-10.38-12.57C59.5,164.03,62.8,168.03,66.42,172.42z
		 M193,94.87c-0.36-0.02-0.73-0.04-1.09-0.06c-0.72-10.02-3.2-19.57-7.58-28.56c-4.45-9.12-15.33-20.94-19.63-21.51
		c1.12,2.27,2.22,4.52,3.61,7.34c-2.26-0.7-3.78-1.18-5.31-1.65c-7.28-2.25-14.35-2.01-21.15,1.7
		c-13.92,7.59-21.14,24.75-17.02,40.43c1.25,4.75,3.15,9.11,6.81,12.63c0.16-1.07,0.04-2.05-0.07-3.04
		c-0.1-0.93-0.17-1.85-0.29-3.08c10.96,18.16,18.99,36.64,13.48,58.37c0.44,0.01,0.89,0.03,1.33,0.04c1.23-2.82,2.47-5.63,3.97-9.06
		c1.49,13.24-2.07,24.26-10.1,33.77c-11.15,13.19-25.66,17.46-41.99,15.04c-1.31,1.89-2.35,3.4-3.4,4.91
		c0.06-1.33,0.7-2.25,1.14-3.25c2.12-4.81,4.02-9.71,6.32-14.43c1.58-3.23,3.44-6.38,5.62-9.23c2.74-3.58,6-6.74,8.86-10.23
		c0.73-0.9,1.2-2.38,1.1-3.53c-0.72-8.04-1.35-16.02,0.82-23.98c0.75-2.75,1.81-5.95,1.06-8.43c-1.06-3.51-3.68-6.54-5.82-10.09
		c-1.42,1.3-2.49,2.28-3.56,3.26c-0.01,0.02-0.02,0.04-0.04,0.06c0.89-0.41,1.79-0.81,2.77-1.26c0.99,1.24,1.96,2.3,2.75,3.48
		c0.88,1.32,2.32,2.78,2.26,4.12c-0.21,4.28-1,8.54-1.61,13.14c-2.74-3.62-3.32-7.25-2.62-11.18c0.22-1.22,0.5-2.49,0.37-3.7
		c-0.13-1.28-0.72-2.51-1.19-4.03c-1.56,0.93-2.53,1.51-3.5,2.09c-0.18-0.19-0.35-0.37-0.53-0.56c0.43-0.7,0.87-1.4,1.3-2.1
		c-0.02,0.01-0.04,0.02-0.06,0.03c0,0,0.11-0.11,0.11-0.11c-2.38,1.64-4.17,0.71-6.16-1c-1.44-1.23-3.38-2.06-5.23-2.59
		c-5.42-1.53-10.91-2.85-16.38-4.19c-1.47-0.36-3.18-1.03-4.48-0.61c-9.38,3.06-20.11,2.17-27.85,9.67c-2.27-1.5-4.38-2.89-6.54-4.3
		c-1.44,2.19-2.66,4.06-3.89,5.92c-0.2-0.15-0.4-0.29-0.61-0.44c1.38-2.23,2.76-4.47,4.22-6.82c2.44,1.56,4.66,2.97,7.11,4.53
		c3.34-4.67,8.26-5.7,13.33-6.61c4.55-0.82,9.05-1.98,13.97-3.09C66.6,94.8,62.23,76.75,73.37,57.69c0.26,5.8-0.18,11.65,0.38,17.4
		c0.58,5.99,3.67,11,8.38,15.34c0.07-0.74,0.18-1.05,0.11-1.31c-2.47-8.65-1.77-17.33,0.09-25.93
		c3.92-18.15,13.17-32.35,30.62-40.24c4.69-2.12,9.58-3.44,15.27-3.31c-2.52,1.58-4.58,2.87-6.39,4.01c4.78,0,9.47,0.03,14.17-0.01
		c23.53-0.19,48.34,15.86,54.23,42.2c0.96,4.31,2.05,8.59,3.19,13.39c0.68-1.19,1.08-1.88,1.47-2.57c0.32,0.08,0.64,0.15,0.96,0.23
		C194.9,82.89,193.95,88.88,193,94.87z"/>
</g>
</svg>
